# xmcd
#
# Track frame offsets: 
#        150
#        16502
#        34434
#        48568
#        61652
#        76754
#        88715
#        106516
#        117292
#        131157
#        142761
#        159855
#        180030
#        195896
#        209140
#
# Disc length: 3152 seconds
#
# Revision: 0
# Processed by: cddbd v1.5.1PL2 Copyright (c) Steve Scherf et al.
# Submitted via: ExactAudioCopy v0.95b4
#
DISCID=ae0c4e0f
DTITLE=Various Artist - Sorrow Bound CD 2
DYEAR=2006
DGENRE=Country
TTITLE0=Alberta Winds - Tim Williams 
TTITLE1=I'm A Little Bit Lonesome (And Just A Little Bit Blue) - Billy
TTITLE1=Cowsill 
TTITLE2=The Starlight Motel - Tom Phillips 
TTITLE3=Sympathetic Heart - Jane Hawley 
TTITLE4=If You're Still There - Stewart MacDougall 
TTITLE5=Hotter Than Fire - Billy Cowsill 
TTITLE6=Wouldn't It Be Nice - Jane Hawley 
TTITLE7=I'm Not Missing You At All - Tim Williams 
TTITLE8=I Was Gonna Clean Up A Little - Tom Phillips 
TTITLE9=Wrong Side Of The Hill - Stewart MacDougall 
TTITLE10=Please Check Your Heart At The Door - Jane Hawley 
TTITLE11=Wherever There's A Party - Tom Phillips 
TTITLE12=For Lovin' You - Tim Williams 
TTITLE13=It's Over When Somebody Wins - Stewart MacDougall 
TTITLE14=It's Over - Billy Cowsill 
EXTD=
EXTT0=
EXTT1=
EXTT2=
EXTT3=
EXTT4=
EXTT5=
EXTT6=
EXTT7=
EXTT8=
EXTT9=
EXTT10=
EXTT11=
EXTT12=
EXTT13=
EXTT14=
PLAYORDER=
